<!DOCTYPE svg PUBLIC "-//W3C//DTD SVG 1.1//EN" "http://www.w3.org/Graphics/SVG/1.1/DTD/svg11.dtd">
<!-- Uploaded to: SVG Repo, www.svgrepo.com, Transformed by: SVG Repo Mixer Tools -->
<svg fill="#ffe0e0" width="800px" height="800px" viewBox="-4.16 -4.16 40.32 40.32" version="1.1" xmlns="http://www.w3.org/2000/svg" stroke="#ffe0e0" stroke-width="0.44800000000000006">
<g id="SVGRepo_bgCarrier" stroke-width="0">
<rect x="-4.16" y="-4.16" width="40.32" height="40.32" rx="20.16" fill="#184aaf" strokewidth="0"/>
</g>
<g id="SVGRepo_tracerCarrier" stroke-linecap="round" stroke-linejoin="round" stroke="#f02d2d" stroke-width="1.28"> <title>vote</title> <path d="M0.972 13.057c1.429-6.875 7.333-12.032 14.406-12.032s12.978 5.156 14.406 12.031h-28.812zM16.569 6.49l-1.142-2.33-1.174 2.33h-2.299l1.829 1.813-0.486 2.45 2.064-1.007 2.328 0.99-0.717-2.349 1.895-1.898h-2.298zM7.009 28.679c-2.754-2.036-4.983-5.153-5.874-8.63h5.874v8.63zM8.996 18.016h-1.017v-4.005h1.017v4.005zM10.013 14.011h0.954v4.005h-0.954v-4.005zM10.013 18.97h-1.017v-0.954h1.017v0.954zM13.938 31.453c-1.425-0.146-2.727-0.504-4.004-1.037v-10.367h4.004v11.404zM13 18.97v-0.954h1.017v0.954h-1.017zM11.983 18.016v-2.988h1.017v2.988h-1.017zM13 14.011h1.017v1.017h-1.017v-1.017zM14.972 15.027v2.988h-0.955v-2.988h0.955zM18.976 14.011v1.017h-0.954v3.942h-1.017v-3.942h-1.017v-1.017h2.988zM20.993 30.345c-1.275 0.551-2.578 0.927-4.005 1.087v-11.383h4.005v10.296zM19.993 14.011h2.986v1.017h-1.971v1.017h1.971v1.018h-1.971v0.954h1.971v0.954h-2.986v-4.96zM23.979 28.551v-8.502h5.641c-0.873 3.404-2.972 6.469-5.641 8.502z"/> </g>
<g id="SVGRepo_iconCarrier"> <title>vote</title> <path d="M0.972 13.057c1.429-6.875 7.333-12.032 14.406-12.032s12.978 5.156 14.406 12.031h-28.812zM16.569 6.49l-1.142-2.33-1.174 2.33h-2.299l1.829 1.813-0.486 2.45 2.064-1.007 2.328 0.99-0.717-2.349 1.895-1.898h-2.298zM7.009 28.679c-2.754-2.036-4.983-5.153-5.874-8.63h5.874v8.63zM8.996 18.016h-1.017v-4.005h1.017v4.005zM10.013 14.011h0.954v4.005h-0.954v-4.005zM10.013 18.97h-1.017v-0.954h1.017v0.954zM13.938 31.453c-1.425-0.146-2.727-0.504-4.004-1.037v-10.367h4.004v11.404zM13 18.97v-0.954h1.017v0.954h-1.017zM11.983 18.016v-2.988h1.017v2.988h-1.017zM13 14.011h1.017v1.017h-1.017v-1.017zM14.972 15.027v2.988h-0.955v-2.988h0.955zM18.976 14.011v1.017h-0.954v3.942h-1.017v-3.942h-1.017v-1.017h2.988zM20.993 30.345c-1.275 0.551-2.578 0.927-4.005 1.087v-11.383h4.005v10.296zM19.993 14.011h2.986v1.017h-1.971v1.017h1.971v1.018h-1.971v0.954h1.971v0.954h-2.986v-4.96zM23.979 28.551v-8.502h5.641c-0.873 3.404-2.972 6.469-5.641 8.502z"/> </g>
</svg>